<svg width="870" height="380" xmlns="http://www.w3.org/2000/svg" preserveAspectRatio="xMidYMid meet">
 <metadata>Created by potrace 1.13, written by Peter Selinger 2001-2015</metadata>

 <g>
  <title>background</title>
  <rect x="-1" y="-1" width="872" height="382" id="canvas_background" fill="none"/>
 </g>
 <g>
  <title>Layer 1</title>
  <text fill="#1c1c8c" stroke-width="0" x="260.421673" y="317.699999" id="svg_6" font-size="250" font-family="Helvetica, Arial, sans-serif" text-anchor="start" xml:space="preserve" font-weight="normal" font-style="normal" transform="matrix(1.0164135694503784,0,0,1,-6.196122467517853,0) " stroke="#000">bl  ng</text>
  <path stroke="#1c1c8c" fill="#1c1c8c" d="m501.700354,192.131603c-10.627649,1.548582 -19.71506,7.94274 -23.360292,16.434979c-1.59158,3.696622 -1.514568,1.448677 -1.514568,44.859002c0,38.814526 0.025671,39.763659 0.513413,41.78681c0.949814,3.89644 2.926454,7.31831 6.032603,10.51539c4.364011,4.495892 9.883201,7.368265 17.019642,8.816942c2.74676,0.574474 2.849442,0.574474 25.336932,0.574474c22.461819,0 22.615843,0 25.208579,-0.574474c6.725711,-1.423699 11.603134,-3.846484 15.967145,-7.917765c3.439867,-3.197077 5.467849,-6.36918 6.879734,-10.790139l0.718778,-2.197992l0,-39.963477l0,-39.963475l-0.590425,-2.123062c-2.490053,-9.166621 -10.319602,-16.085298 -21.409323,-18.907719l-2.644077,-0.674385l-23.360292,-0.049953c-12.835325,-0.024978 -24.002059,0.049953 -24.797849,0.174841zm48.799907,4.071278c5.390837,1.248859 9.47247,3.371918 13.117703,6.893699c2.592736,2.497718 4.184316,4.795617 5.13413,7.443198c1.257862,3.471828 1.257862,2.572648 1.18085,43.760006c-0.051341,36.116993 -0.077012,38.689641 -0.513413,40.063385c-1.18085,3.846487 -2.875113,6.668906 -5.596202,9.341464c-3.208831,3.147122 -7.393147,5.445024 -12.296242,6.718858l-2.695418,0.699362l-23.231939,0l-23.231939,0l-2.669748,-0.699362c-5.13413,-1.323789 -9.164422,-3.571736 -12.527278,-6.993607c-2.875113,-2.922329 -4.826082,-6.36918 -5.467849,-9.71612c-0.179695,-0.824248 -0.256707,-15.710641 -0.256707,-40.512976c0,-38.939411 0,-39.264115 0.539084,-41.112426c2.002311,-7.043562 8.214608,-12.838267 16.352205,-15.236075c4.030292,-1.198904 4.184316,-1.198904 27.903997,-1.148951c20.433838,0.049955 22.48749,0.09991 24.258765,0.499544z" id="svg_8" stroke-width="13"/>
  <g stroke="null" id="svg_14">
   <path stroke="#1c1c8c" fill="#1c1c8c" d="m70.146035,10.058023c-25.744539,3.878912 -47.757985,19.895093 -56.588237,41.166581c-3.855462,9.259353 -3.668908,3.628668 -3.668908,112.363501c0,97.223206 0.062185,99.600608 1.243698,104.668228c2.30084,9.75986 7.089076,18.331013 14.613446,26.339107c10.571429,11.261376 23.941177,18.456142 41.228573,22.08481c6.653782,1.438952 6.902521,1.438952 61.376473,1.438952c54.411767,0 54.784876,0 61.065548,-1.438952c16.292438,-3.566104 28.107564,-9.634732 38.678993,-19.832536c8.332773,-8.008088 13.245379,-15.953617 16.665547,-27.027301l1.741177,-5.505563l0,-100.101116l0,-100.10111l-1.430252,-5.317876c-6.031933,-22.96069 -24.99832,-40.290694 -51.862187,-47.360338l-6.405042,-1.689209l-56.588237,-0.125122c-31.092438,-0.062564 -58.142859,0.125122 -60.07059,0.437943zm118.21345,10.197797c13.058824,3.12816 22.946219,8.446031 31.776472,17.26744c6.280672,6.256321 10.136135,12.012134 12.436975,18.643834c3.047059,8.696288 3.047059,6.444007 2.860504,109.610719c-0.12437,90.466384 -0.186555,96.910391 -1.243698,100.351366c-2.860504,9.634738 -6.964706,16.704375 -13.556303,23.398639c-7.77311,7.882959 -17.909244,13.638779 -29.786556,16.829497l-6.529412,1.751773l-56.277313,0l-56.277313,0l-6.467227,-1.751773c-12.436975,-3.315847 -22.200001,-8.946538 -30.34622,-17.517691c-6.964706,-7.319894 -11.690757,-15.953617 -13.245379,-24.337084c-0.435294,-2.064588 -0.621849,-39.35225 -0.621849,-101.47751c0,-97.536021 0,-98.349343 1.305882,-102.979019c4.85042,-17.642819 19.89916,-32.157485 39.611766,-38.163549c9.763026,-3.003032 10.136135,-3.003032 67.59496,-2.87791c49.499161,0.125128 54.473952,0.250257 58.764708,1.251265z" id="svg_2" stroke-width="8"/>
   <path stroke="null" d="m109.072314,140.818176c-6.280673,3.171429 -7.586555,11.193278 -2.54958,16.105883c4.912605,4.788236 12.934454,3.482353 15.857144,-2.67395c1.678992,-3.420168 1.616807,-5.783194 -0.12437,-9.078992c-0.994958,-1.865546 -2.30084,-3.171429 -4.166387,-4.166387c-3.295798,-1.741177 -5.783194,-1.803361 -9.016807,-0.186555zm8.581513,4.85042c2.487395,2.54958 2.363025,6.280673 -0.24874,8.457143c-2.67395,2.238656 -5.658824,2.176471 -8.084034,-0.186555c-2.363025,-2.42521 -2.42521,-5.410084 -0.186555,-8.084034c1.305882,-1.616807 2.052101,-1.927731 4.228572,-1.927731c2.052101,0 2.984874,0.373109 4.290757,1.741177z" id="svg_5" stroke-width="0"/>
   <path stroke="null" opacity="0.75" d="m102.853826,73.40977c-39.052103,5.472269 -67.657146,38.181515 -67.657146,77.357987c0,4.290757 0.186555,8.768068 0.435294,9.94958c0.24874,1.181513 0.684034,3.793278 1.057143,5.783194c1.430252,8.208404 6.529412,20.707564 11.317648,27.79664c9.265547,13.742858 23.257144,24.687396 38.492439,30.159665c8.270589,2.922689 14.551261,4.104202 23.505884,4.415126c16.914287,0.497479 34.574792,-4.97479 47.509246,-14.800001c2.363025,-1.803361 4.663866,-3.544538 5.161345,-3.917647c0.621849,-0.497479 6.342857,4.912605 24.003363,22.57311l23.132774,23.132774l4.290757,-4.290757l4.290757,-4.290757l-23.132774,-23.319329l-23.194959,-23.319329l3.420168,-4.912605c13.121009,-18.779833 17.225211,-42.721011 11.317648,-65.480676c-6.094118,-23.568068 -24.625211,-43.840338 -48.131095,-52.670591c-8.021849,-2.984874 -14.053782,-4.104202 -24.314287,-4.228572c-5.285715,-0.12437 -10.447059,-0.062185 -11.504202,0.062185zm25.806724,9.763026c10.757984,2.798319 18.468909,6.715967 26.988237,13.556303c11.939496,9.576471 20.1479,22.884035 24.065547,38.741178c1.554622,6.529412 1.989916,18.779833 0.870588,25.868909c-2.30084,14.737816 -8.394958,27.174791 -18.655463,37.808405c-6.405042,6.778152 -11.628572,10.633614 -19.277312,14.426891c-31.465548,15.484034 -67.781516,5.534454 -87.929416,-24.127732c-7.213446,-10.633614 -11.317648,-24.376472 -11.317648,-38.057145c-0.062185,-7.77311 0.373109,-10.882353 2.238656,-18.468909c4.85042,-19.215127 19.152942,-36.378153 37.74622,-45.270591c9.700841,-4.663866 18.531093,-6.467227 30.657144,-6.218488c6.840336,0.12437 9.94958,0.497479 14.613446,1.741177z" id="svg_3" stroke-width="0"/>
   <path stroke="null" d="m83.576514,93.930779c-3.544538,1.181513 -6.840336,4.97479 -8.084034,9.203362c-1.368067,4.663866 -1.057143,6.902521 0.870588,6.902521c1.305882,0 1.554622,-0.497479 2.54958,-4.228572c2.984874,-11.877312 13.121009,-11.317648 28.107564,1.554622l3.544538,3.047059l-3.979832,4.601681c-2.176471,2.487395 -4.726051,5.658824 -5.596639,7.089076c-1.554622,2.30084 -1.927731,2.487395 -5.161345,2.922689c-1.989916,0.186555 -6.156303,0.870588 -9.327732,1.492437c-3.233614,0.621849 -5.907563,0.808403 -6.094118,0.497479c-0.186555,-0.310924 -0.746219,-2.984874 -1.243698,-5.907563c-0.932773,-5.907563 -1.368067,-6.715967 -3.295798,-6.094118c-1.616807,0.497479 -1.678992,2.67395 -0.373109,9.078992c0.559664,2.487395 0.870588,4.539496 0.808403,4.601681c-0.12437,0.062185 -2.42521,0.870588 -5.161345,1.803361c-13.058824,4.477311 -21.453783,12.250421 -21.453783,19.712606c0,2.30084 2.736135,7.52437 5.036975,9.638656c3.668908,3.420168 9.389916,6.715967 15.670589,8.954622c4.290757,1.554622 6.031933,2.487395 6.031933,3.171429c0,0.559664 -0.435294,3.233614 -0.994958,5.907563c-1.430252,6.840336 -0.994958,16.230253 0.932773,20.645379c2.922689,6.529412 8.457143,9.141177 15.732774,7.275631c5.907563,-1.492437 12.312606,-5.347899 18.344539,-11.068908l2.54958,-2.42521l4.912605,4.104202c2.798319,2.42521 7.275631,5.347899 10.571429,7.026891c4.85042,2.42521 6.218488,2.860504 9.638656,2.860504c2.67395,0.062185 4.663866,-0.310924 6.342857,-1.119328c2.67395,-1.305882 5.596639,-4.97479 6.653782,-8.332774c1.492437,-4.788236 0.994958,-18.468909 -0.870588,-24.687396c-0.373109,-1.057143 0.310924,-1.430252 5.09916,-2.922689c5.907563,-1.927731 6.902521,-2.54958 6.902521,-4.290757c0,-1.927731 -1.492437,-1.927731 -7.151261,0.062185c-2.984874,1.057143 -5.658824,1.927731 -5.969748,1.927731c-0.310924,0 -0.746219,-0.746219 -0.932773,-1.741177c-0.24874,-0.932773 -1.616807,-4.726051 -3.109244,-8.394958l-2.611765,-6.715967l3.047059,-7.586555c1.678992,-4.166387 3.047059,-7.959664 3.047059,-8.394958c0,-1.616807 1.927731,-1.430252 7.586555,0.870588c17.225211,6.840336 21.205043,14.862186 11.690757,23.443699c-2.176471,1.927731 -2.42521,2.42521 -1.865546,3.544538c1.057143,1.989916 2.487395,1.492437 6.280673,-2.42521c6.902521,-7.026891 6.591597,-13.556303 -0.932773,-20.458825c-3.793278,-3.420168 -11.006723,-7.275631 -17.287396,-9.203362c-1.989916,-0.621849 -3.606723,-1.368067 -3.606723,-1.678992c0,-0.373109 0.435294,-2.860504 0.994958,-5.596639c1.305882,-6.342857 0.932773,-17.59832 -0.621849,-21.267228c-2.30084,-5.347899 -6.218488,-7.959664 -11.877312,-7.959664c-6.405042,0 -14.115967,3.855462 -21.826892,10.944538c-2.42521,2.238656 -3.731093,2.984874 -4.228572,2.54958c-0.435294,-0.310924 -3.171429,-2.42521 -6.031933,-4.788236c-4.663866,-3.731093 -10.260505,-7.026891 -13.991597,-8.146219c-2.67395,-0.808403 -6.902521,-0.808403 -9.265547,0zm60.94118,5.22353c2.736135,2.54958 3.731093,6.405042 3.668908,13.680673c-0.12437,7.710925 -1.492437,14.737816 -2.798319,14.426891c-0.497479,-0.12437 -4.663866,-0.746219 -9.265547,-1.430252c-7.710925,-1.119328 -8.519328,-1.368067 -9.638656,-2.922689c-0.684034,-0.932773 -3.233614,-4.104202 -5.721009,-7.089076l-4.477311,-5.347899l2.922689,-2.736135c4.726051,-4.477311 10.447059,-7.959664 16.292438,-10.07395c0.497479,-0.186555 2.42521,-0.24874 4.228572,-0.12437c2.363025,0.12437 3.668908,0.559664 4.788236,1.616807zm-26.801682,19.339497c2.238656,2.736135 4.104202,5.22353 4.104202,5.410084c0,0.24874 -3.917647,0.435294 -8.705883,0.435294c-4.788236,0 -8.705883,-0.12437 -8.705883,-0.24874c0,-0.310924 8.705883,-10.633614 8.954622,-10.633614c0.12437,0 2.114286,2.238656 4.352941,5.036975zm2.611765,9.887395l5.036975,0l3.047059,4.788236c1.678992,2.67395 4.477311,7.586555 6.218488,10.882353l3.171429,6.031933l-3.233614,6.094118c-1.741177,3.357983 -4.539496,8.146219 -6.156303,10.633614l-2.860504,4.477311l-12.250421,-0.12437l-12.250421,-0.186555l-2.922689,-4.352941c-1.554622,-2.42521 -4.290757,-7.089076 -6.094118,-10.447059l-3.295798,-6.031933l3.606723,-6.715967c1.927731,-3.668908 4.788236,-8.519328 6.280673,-10.820169l2.736135,-4.166387l5.721009,-0.24874c3.171429,-0.12437 6.280673,-0.12437 6.964706,0c0.684034,0.062185 3.482353,0.186555 6.280673,0.186555zm-24.625211,0.994958c0,0.186555 -0.497479,1.119328 -1.181513,1.989916c-0.621849,0.932773 -2.67395,4.415126 -4.601681,7.77311c-2.611765,4.663866 -3.482353,5.845378 -3.855462,4.97479c-0.24874,-0.621849 -1.368067,-3.668908 -2.54958,-6.840336l-2.052101,-5.721009l3.482353,-0.684034c3.668908,-0.808403 8.643698,-1.678992 10.011765,-1.803361c0.373109,0 0.746219,0.12437 0.746219,0.310924zm41.352943,0.621849c1.741177,0.186555 4.166387,0.621849 5.472269,0.994958c2.798319,0.684034 2.798319,0.684034 -0.435294,9.203362l-2.052101,5.285715l-1.741177,-3.420168c-0.932773,-1.865546 -3.109244,-5.596639 -4.726051,-8.270589l-3.047059,-4.912605l1.678992,0.373109c0.994958,0.186555 3.171429,0.497479 4.85042,0.746219zm-56.961347,9.576471c1.305882,3.606723 2.798319,7.4 3.357983,8.519328c0.994958,1.865546 0.994958,2.052101 -0.746219,5.907563c-0.994958,2.114286 -2.42521,5.969748 -3.233614,8.457143c-1.368067,4.290757 -1.554622,4.539496 -2.984874,4.166387c-3.979832,-0.994958 -11.317648,-4.228572 -14.862186,-6.591597c-9.203362,-6.031933 -10.07395,-12.62353 -2.42521,-18.842018c4.042017,-3.233614 16.230253,-8.830253 18.095799,-8.270589c0.310924,0.12437 1.554622,3.109244 2.798319,6.653782zm9.016807,19.712606c1.181513,2.363025 3.109244,5.783194 4.352941,7.64874c1.181513,1.865546 2.114286,3.420168 2.052101,3.482353c-0.684034,0.621849 -13.494118,-2.238656 -13.494118,-2.922689c0,-0.746219 4.477311,-12.374791 4.726051,-12.374791c0.12437,0 1.181513,1.865546 2.363025,4.166387zm55.344541,7.462185c0.373109,1.181513 0.12437,1.368067 -2.860504,1.989916c-4.726051,0.994958 -10.07395,1.865546 -10.32269,1.616807c-0.12437,-0.12437 0.746219,-1.678992 1.927731,-3.482353c1.181513,-1.865546 3.171429,-5.285715 4.477311,-7.64874l2.42521,-4.290757l1.989916,5.22353c1.057143,2.860504 2.176471,5.845378 2.363025,6.591597zm-56.028574,6.715967c3.171429,0.497479 6.715967,0.994958 7.897479,1.119328c1.865546,0.186555 2.67395,0.808403 5.596639,4.601681c1.865546,2.363025 4.539496,5.658824 5.845378,7.275631l2.42521,2.922689l-1.803361,1.865546c-0.994958,1.057143 -3.544538,3.171429 -5.721009,4.726051c-10.260505,7.4 -17.971429,8.394958 -21.578152,2.736135c-2.487395,-4.042017 -3.171429,-11.317648 -1.741177,-19.588236c1.119328,-6.715967 1.368067,-7.4 2.42521,-6.964706c0.497479,0.186555 3.482353,0.746219 6.653782,1.305882zm58.26723,1.492437c2.860504,12.001681 1.243698,23.443699 -3.731093,26.366388c-4.85042,2.922689 -14.551261,-0.870588 -24.189917,-9.452101l-2.798319,-2.487395l2.798319,-2.984874c2.176471,-2.363025 5.658824,-6.653782 9.016807,-11.317648c0.12437,-0.062185 1.243698,-0.310924 2.54958,-0.497479c4.166387,-0.497479 14.178152,-2.176471 14.426891,-2.42521c0.746219,-0.684034 1.243698,0.062185 1.927731,2.798319zm-24.252102,0.621849c0,0.373109 -8.705883,10.633614 -9.078992,10.633614c-0.559664,0 -8.954622,-9.825211 -8.954622,-10.571429c0,-0.186555 4.042017,-0.310924 9.016807,-0.310924c4.97479,0 9.016807,0.12437 9.016807,0.24874z" id="svg_4" stroke-width="0"/>
  </g>
 </g>
</svg>