<?xml version="1.0" encoding="UTF-8" standalone="no"?>
<svg
   xmlns:dc="http://purl.org/dc/elements/1.1/"
   xmlns:cc="http://creativecommons.org/ns#"
   xmlns:rdf="http://www.w3.org/1999/02/22-rdf-syntax-ns#"
   xmlns:svg="http://www.w3.org/2000/svg"
   xmlns="http://www.w3.org/2000/svg"
   xmlns:sodipodi="http://sodipodi.sourceforge.net/DTD/sodipodi-0.dtd"
   xmlns:inkscape="http://www.inkscape.org/namespaces/inkscape"
   width="1000"
   height="272"
   preserveAspectRatio="xMidYMid meet"
   id="svg2"
   version="1.1"
   inkscape:version="0.91 r13725"
   sodipodi:docname="logo_full.svg"
   inkscape:export-filename="C:\Users\Blaine\Pictures\logo_full MAG.png"
   inkscape:export-xdpi="90"
   inkscape:export-ydpi="90">
  <defs
     id="defs24" />
  <sodipodi:namedview
     pagecolor="#ffffff"
     bordercolor="#666666"
     borderopacity="1"
     objecttolerance="10"
     gridtolerance="10"
     guidetolerance="10"
     inkscape:pageopacity="0"
     inkscape:pageshadow="2"
     inkscape:window-width="1920"
     inkscape:window-height="1027"
     id="namedview22"
     showgrid="false"
     inkscape:zoom="0.93630691"
     inkscape:cx="327.81662"
     inkscape:cy="126.3362"
     inkscape:window-x="-8"
     inkscape:window-y="-8"
     inkscape:window-maximized="1"
     inkscape:current-layer="svg2" />
  <metadata
     id="metadata4">Created by potrace 1.13, written by Peter Selinger 2001-2015<rdf:RDF>
  <cc:Work
     rdf:about="">
    <dc:format>image/svg+xml</dc:format>
    <dc:type
       rdf:resource="http://purl.org/dc/dcmitype/StillImage" />
    <dc:title />
  </cc:Work>
</rdf:RDF>
</metadata>
  <g
     id="g6"
     transform="translate(0,-108)">
    <title
       id="title8">background</title>
    <rect
       x="-1"
       y="-1"
       width="872"
       height="382"
       id="canvas_background"
       style="fill:none" />
  </g>
  <text
     style="font-style:normal;font-weight:normal;font-size:252.04335022px;font-family:Helvetica, Arial, sans-serif;text-anchor:start;fill:#1c1c8c;stroke:#000000;stroke-width:0"
     transform="scale(1.0081734,0.99189287)"
     font-style="normal"
     font-weight="normal"
     xml:space="preserve"
     font-size="250"
     id="svg_6"
     y="221.18083"
     x="376.28571">bl  ng</text>
  <path
     style="fill:#1c1c8c;stroke:#1c1c8c;stroke-width:16.439;stroke-miterlimit:4;stroke-dasharray:none"
     inkscape:connector-curvature="0"
     id="svg_8"
     d="m 622.52212,96.723212 c -10.64517,1.513032 -19.74755,7.760388 -23.39879,16.057678 -1.59421,3.61175 -1.51707,1.41541 -1.51707,43.82916 0,37.92347 0.0258,38.85081 0.51426,40.82751 0.95139,3.807 2.93128,7.15031 6.04255,10.27399 4.3712,4.39269 9.89949,7.19912 17.04769,8.61454 2.75128,0.56128 2.85413,0.56128 25.37869,0.56128 22.49883,0 22.65312,0 25.25012,-0.56128 6.73679,-1.39102 11.62226,-3.75818 15.99346,-7.736 3.44553,-3.12369 5.47687,-6.22296 6.89106,-10.54243 l 0.71997,-2.14753 0,-39.04604 0,-39.04603 -0.5914,-2.07432 c -2.49416,-8.95618 -10.33661,-15.71602 -21.4446,-18.473646 l -2.64844,-0.658912 -23.39879,-0.0488 c -12.85648,-0.0244 -24.04161,0.0488 -24.83871,0.17082 z m 48.88033,3.977808 c 5.39972,1.22019 9.48808,3.29451 13.13932,6.73544 2.59701,2.44037 4.19121,4.68552 5.14258,7.27233 1.25995,3.39212 1.25995,2.51358 1.1828,42.75539 -0.0514,35.28786 -0.0772,37.80146 -0.51426,39.14366 -1.18279,3.75818 -2.87984,6.51581 -5.60541,9.127 -3.21413,3.07489 -7.40534,5.32003 -12.31651,6.56462 l -2.69986,0.68331 -23.27023,0 -23.27022,0 -2.67415,-0.68331 c -5.1426,-1.2934 -9.17952,-3.48973 -12.54793,-6.83306 -2.87984,-2.85523 -4.83403,-6.22296 -5.47685,-9.49306 -0.18,-0.80532 -0.25713,-15.34997 -0.25713,-39.58292 0,-38.04547 0,-38.36273 0.53997,-40.16861 2.00561,-6.88185 8.22814,-12.54353 16.37915,-14.88629 4.03694,-1.17139 4.19121,-1.17139 27.94998,-1.12257 20.46751,0.0488 22.52454,0.0976 24.29875,0.48807 z" />
  <path
     d="m 278.14736,9.1095924 c -11.72877,2.5547096 -21.75771,13.1032296 -25.78062,27.1129596 -1.75648,6.09836 -1.67149,2.3899 -1.67149,74.004388 0,64.03275 0.0284,65.59853 0.56661,68.93615 1.04822,6.428 3.22966,12.07311 6.65763,17.34736 4.81616,7.41692 10.90719,12.1555 18.78303,14.54541 3.03134,0.94771 3.14466,0.94771 27.96205,0.94771 24.78907,0 24.95905,0 27.82041,-0.94771 7.42255,-2.3487 12.80532,-6.34559 17.62148,-13.06203 3.79627,-5.27425 6.03436,-10.5073 7.59254,-17.80061 l 0.79325,-3.62604 0,-65.9282 0,-65.928168 -0.65161,-3.50244 c -2.74804,-15.12227 -11.3888,-26.53609 -23.6275,-31.19227 l -2.91803,-1.1125396 -25.78063,-0.0824 c -14.16517,-0.0412 -26.48887,0.0824 -27.36712,0.28844 z m 53.856,6.7164296 c 5.94938,2.06025 10.4539,5.56269 14.47682,11.37261 2.86137,4.12052 4.61784,7.91138 5.66607,12.27912 1.38818,5.72752 1.38818,4.24413 1.30319,72.191358 -0.0567,59.5826 -0.085,63.82672 -0.5666,66.093 -1.3032,6.34561 -3.173,11.00177 -6.17602,15.41073 -3.54129,5.19184 -8.15914,8.98271 -13.57025,11.08417 l -2.97468,1.15374 -25.63897,0 -25.63897,0 -2.94636,-1.15374 c -5.66607,-2.18388 -10.11393,-5.89233 -13.82521,-11.53743 -3.173,-4.821 -5.32611,-10.50731 -6.03436,-16.02879 -0.19832,-1.35977 -0.2833,-25.91802 -0.2833,-66.8347 0,-64.238778 0,-64.774438 0.59493,-67.823618 2.20977,-11.61984 9.06571,-21.17943 18.04644,-25.13512 4.44786,-1.97784 4.61784,-1.97784 30.79509,-1.89544 22.55096,0.0824 24.81739,0.16483 26.77218,0.82411 z"
     id="svg_2"
     inkscape:connector-curvature="0"
     style="fill:#1c1c8c;stroke:#1c1c8c;stroke-width:14.83899975;stroke-miterlimit:4;stroke-dasharray:none" />
  <g
     id="g4147"
     transform="matrix(1.2047367,0,0,1.2047367,-42.402732,-87.682746)">
    <circle
       r="20"
       cy="149.862"
       cx="113.235"
       id="path4159"
       style="fill:#00ff00;fill-opacity:1;stroke:none;stroke-width:15;stroke-miterlimit:4;stroke-dasharray:none;stroke-opacity:1" />
    <path
       style="stroke-width:0"
       inkscape:connector-curvature="0"
       id="svg_5"
       d="m 109.07231,140.81818 c -6.28067,3.17142 -7.58655,11.19327 -2.54958,16.10588 4.91261,4.78823 12.93446,3.48235 15.85715,-2.67395 1.67899,-3.42017 1.61681,-5.7832 -0.12437,-9.07899 -0.99496,-1.86555 -2.30084,-3.17143 -4.16639,-4.16639 -3.2958,-1.74118 -5.78319,-1.80336 -9.01681,-0.18656 z m 8.58152,4.85042 c 2.48739,2.54958 2.36302,6.28067 -0.24874,8.45714 -2.67395,2.23865 -5.65883,2.17647 -8.08404,-0.18656 -2.36302,-2.42521 -2.42521,-5.41008 -0.18655,-8.08403 1.30588,-1.61681 2.0521,-1.92773 4.22857,-1.92773 2.0521,0 2.98487,0.37311 4.29076,1.74118 z"
       stroke="null" />
    <path
       style="opacity:0.75;stroke-width:0"
       inkscape:connector-curvature="0"
       id="svg_3"
       d="m 102.85383,73.40977 c -39.052107,5.472269 -67.65715,38.18152 -67.65715,77.35799 0,4.29075 0.186555,8.76806 0.435294,9.94958 0.24874,1.18151 0.684034,3.79327 1.057143,5.78319 1.430252,8.2084 6.529412,20.70756 11.317648,27.79664 9.265547,13.74286 23.257144,24.6874 38.492439,30.15967 8.270589,2.92268 14.551256,4.1042 23.505886,4.41512 16.91428,0.49748 34.57479,-4.97479 47.50924,-14.8 2.36303,-1.80336 4.66387,-3.54454 5.16135,-3.91765 0.62185,-0.49748 6.34286,4.91261 24.00336,22.57311 l 23.13278,23.13278 4.29075,-4.29076 4.29076,-4.29076 -23.13277,-23.31933 -23.19496,-23.31932 3.42017,-4.91261 c 13.121,-18.77983 17.22521,-42.72101 11.31764,-65.48068 -6.09412,-23.56806 -24.62521,-43.840333 -48.13109,-52.670586 -8.02185,-2.984874 -14.05378,-4.104202 -24.31429,-4.228572 -5.28571,-0.12437 -10.44706,-0.06218 -11.5042,0.06218 z m 25.80672,9.763026 c 10.75798,2.798319 18.46891,6.715967 26.98824,13.556303 11.93949,9.576471 20.1479,22.884031 24.06554,38.741181 1.55463,6.52941 1.98992,18.77983 0.87059,25.86891 -2.30084,14.73781 -8.39496,27.17479 -18.65546,37.8084 -6.40504,6.77815 -11.62857,10.63361 -19.27731,14.42689 -31.46555,15.48404 -67.781519,5.53446 -87.929419,-24.12773 -7.213446,-10.63361 -11.317648,-24.37647 -11.317648,-38.05715 -0.06218,-7.77311 0.373109,-10.88235 2.238656,-18.4689 4.85042,-19.21513 19.152942,-36.378157 37.74622,-45.270595 9.700841,-4.663866 18.531091,-6.467227 30.657141,-6.218488 6.84034,0.12437 9.94958,0.497479 14.61345,1.741177 z"
       stroke="null" />
    <path
       style="stroke-width:0"
       inkscape:connector-curvature="0"
       id="svg_4"
       d="m 83.576514,93.930779 c -3.544538,1.181513 -6.840336,4.97479 -8.084034,9.203361 -1.368067,4.66387 -1.057143,6.90252 0.870588,6.90252 1.305882,0 1.554622,-0.49748 2.54958,-4.22857 2.984874,-11.877312 13.121009,-11.317648 28.107562,1.55462 l 3.54454,3.04706 -3.97983,4.60168 c -2.17647,2.4874 -4.72605,5.65883 -5.59664,7.08908 -1.554623,2.30084 -1.927732,2.48739 -5.161346,2.92269 -1.989916,0.18655 -6.156303,0.87059 -9.327732,1.49243 -3.233614,0.62185 -5.907563,0.80841 -6.094118,0.49748 -0.186555,-0.31092 -0.746219,-2.98487 -1.243698,-5.90756 -0.932773,-5.90756 -1.368067,-6.71597 -3.295798,-6.09412 -1.616807,0.49748 -1.678992,2.67395 -0.373109,9.07899 0.559664,2.4874 0.870588,4.5395 0.808403,4.60169 -0.12437,0.0622 -2.42521,0.87058 -5.161345,1.80336 -13.058824,4.47731 -21.453783,12.25042 -21.453783,19.7126 0,2.30084 2.736135,7.52437 5.036975,9.63866 3.668908,3.42017 9.389916,6.71597 15.670589,8.95462 4.290757,1.55462 6.031933,2.48739 6.031933,3.17143 0,0.55966 -0.435294,3.23361 -0.994958,5.90756 -1.430252,6.84034 -0.994958,16.23026 0.932773,20.64538 2.922689,6.52941 8.457143,9.14118 15.732774,7.27563 5.907563,-1.49243 12.31261,-5.3479 18.34454,-11.06891 l 2.54958,-2.42521 4.9126,4.10421 c 2.79832,2.42521 7.27564,5.3479 10.57143,7.02689 4.85042,2.42521 6.21849,2.8605 9.63866,2.8605 2.67395,0.0622 4.66387,-0.31092 6.34286,-1.11933 2.67395,-1.30588 5.59664,-4.97479 6.65378,-8.33277 1.49244,-4.78824 0.99496,-18.46891 -0.87059,-24.6874 -0.37311,-1.05714 0.31092,-1.43025 5.09916,-2.92269 5.90756,-1.92773 6.90252,-2.54958 6.90252,-4.29075 0,-1.92773 -1.49244,-1.92773 -7.15126,0.0622 -2.98487,1.05714 -5.65882,1.92773 -5.96975,1.92773 -0.31092,0 -0.74622,-0.74622 -0.93277,-1.74117 -0.24874,-0.93278 -1.61681,-4.72606 -3.10924,-8.39496 l -2.61177,-6.71597 3.04706,-7.58655 c 1.67899,-4.16639 3.04706,-7.95967 3.04706,-8.39496 0,-1.61681 1.92773,-1.43025 7.58655,0.87059 17.22521,6.84033 21.20505,14.86218 11.69076,23.44369 -2.17647,1.92774 -2.42521,2.42521 -1.86555,3.54454 1.05715,1.98992 2.4874,1.49244 6.28068,-2.42521 6.90252,-7.02689 6.59159,-13.5563 -0.93278,-20.45882 -3.79327,-3.42017 -11.00672,-7.27563 -17.28739,-9.20336 -1.98992,-0.62185 -3.60672,-1.36807 -3.60672,-1.679 0,-0.3731 0.43529,-2.8605 0.99495,-5.59663 1.30589,-6.34286 0.93278,-17.59832 -0.62185,-21.26723 -2.30084,-5.347902 -6.21848,-7.959667 -11.87731,-7.959667 -6.40504,0 -14.11596,3.855462 -21.82689,10.944537 -2.42521,2.23866 -3.73109,2.98488 -4.22857,2.54958 -0.4353,-0.31092 -3.17143,-2.42521 -6.03193,-4.78823 -4.66387,-3.731098 -10.26051,-7.026896 -13.991602,-8.146224 -2.67395,-0.808403 -6.902521,-0.808403 -9.265547,0 z m 60.941176,5.22353 c 2.73614,2.549581 3.7311,6.405041 3.66891,13.680671 -0.12437,7.71093 -1.49244,14.73782 -2.79832,14.42689 -0.49748,-0.12437 -4.66386,-0.74622 -9.26554,-1.43025 -7.71093,-1.11933 -8.51933,-1.36807 -9.63866,-2.92269 -0.68403,-0.93277 -3.23361,-4.1042 -5.72101,-7.08907 l -4.47731,-5.3479 2.92269,-2.73614 c 4.72605,-4.47731 10.44706,-7.959662 16.29244,-10.073948 0.49748,-0.186555 2.42521,-0.24874 4.22857,-0.12437 2.36302,0.12437 3.66891,0.559664 4.78824,1.616807 z m -26.80168,19.339501 c 2.23866,2.73613 4.1042,5.22353 4.1042,5.41008 0,0.24874 -3.91764,0.43529 -8.70588,0.43529 -4.78823,0 -8.70588,-0.12437 -8.70588,-0.24874 0,-0.31092 8.70588,-10.63361 8.95462,-10.63361 0.12437,0 2.11429,2.23866 4.35294,5.03698 z m 2.61177,9.88739 5.03697,0 3.04706,4.78824 c 1.67899,2.67395 4.47731,7.58655 6.21849,10.88235 l 3.17143,6.03193 -3.23362,6.09412 c -1.74117,3.35798 -4.53949,8.14622 -6.1563,10.63362 l -2.8605,4.47731 -12.25042,-0.12437 -12.25043,-0.18656 -2.922684,-4.35294 c -1.554622,-2.42521 -4.290757,-7.08908 -6.094118,-10.44706 l -3.295798,-6.03193 3.606723,-6.71597 c 1.927731,-3.66891 4.788236,-8.51933 6.280673,-10.82017 l 2.736134,-4.16638 5.72101,-0.24874 c 3.17143,-0.12437 6.28067,-0.12437 6.96471,0 0.68403,0.0622 3.48235,0.18655 6.28067,0.18655 z m -24.625214,0.99496 c 0,0.18655 -0.497479,1.11933 -1.181513,1.98991 -0.621849,0.93278 -2.67395,4.41513 -4.601681,7.77311 -2.611765,4.66387 -3.482353,5.84538 -3.855462,4.97479 -0.24874,-0.62184 -1.368067,-3.6689 -2.54958,-6.84033 l -2.052101,-5.72101 3.482353,-0.68403 c 3.668908,-0.80841 8.643698,-1.679 10.011765,-1.80337 0.373109,0 0.746219,0.12437 0.746219,0.31093 z m 41.352944,0.62185 c 1.74118,0.18655 4.16639,0.62185 5.47227,0.99496 2.79832,0.68403 2.79832,0.68403 -0.4353,9.20336 l -2.0521,5.28571 -1.74117,-3.42016 c -0.93278,-1.86555 -3.10925,-5.59664 -4.72605,-8.27059 l -3.04706,-4.91261 1.67899,0.37311 c 0.99496,0.18655 3.17143,0.49748 4.85042,0.74622 z m -56.961348,9.57647 c 1.305882,3.60672 2.798319,7.4 3.357983,8.51933 0.994958,1.86554 0.994958,2.0521 -0.746219,5.90756 -0.994958,2.11429 -2.42521,5.96975 -3.233614,8.45714 -1.368067,4.29076 -1.554622,4.5395 -2.984874,4.16639 -3.979832,-0.99496 -11.317648,-4.22857 -14.862186,-6.5916 -9.203362,-6.03193 -10.07395,-12.62353 -2.42521,-18.84201 4.042017,-3.23362 16.230253,-8.83026 18.095799,-8.27059 0.310924,0.12437 1.554622,3.10924 2.798319,6.65378 z m 9.016807,19.7126 c 1.181513,2.36303 3.109244,5.7832 4.352941,7.64874 1.181513,1.86555 2.114286,3.42017 2.052101,3.48236 -0.684034,0.62185 -13.494118,-2.23866 -13.494118,-2.92269 0,-0.74622 4.477311,-12.37479 4.726051,-12.37479 0.12437,0 1.181513,1.86554 2.363025,4.16638 z m 55.344541,7.46219 c 0.37311,1.18151 0.12437,1.36807 -2.8605,1.98992 -4.72605,0.99495 -10.07395,1.86554 -10.32269,1.6168 -0.12437,-0.12437 0.74622,-1.67899 1.92773,-3.48235 1.18151,-1.86555 3.17143,-5.28572 4.47731,-7.64874 l 2.42521,-4.29076 1.98991,5.22353 c 1.05715,2.86051 2.17647,5.84538 2.36303,6.5916 z m -56.028574,6.71597 c 3.171429,0.49748 6.715967,0.99495 7.897479,1.11932 1.865546,0.18656 2.67395,0.80841 5.596635,4.60169 1.86555,2.36302 4.5395,5.65882 5.84538,7.27563 l 2.42521,2.92269 -1.80336,1.86554 c -0.99496,1.05714 -3.54454,3.17143 -5.72101,4.72605 -10.260503,7.4 -17.971427,8.39496 -21.57815,2.73614 -2.487395,-4.04202 -3.171429,-11.31765 -1.741177,-19.58824 1.119328,-6.71597 1.368067,-7.4 2.42521,-6.9647 0.497479,0.18655 3.482353,0.74621 6.653782,1.30588 z m 58.267234,1.49243 c 2.8605,12.00168 1.24369,23.4437 -3.7311,26.36639 -4.85042,2.92269 -14.55126,-0.87059 -24.18991,-9.4521 l -2.79832,-2.48739 2.79832,-2.98488 c 2.17647,-2.36302 5.65882,-6.65378 9.0168,-11.31765 0.12437,-0.0622 1.2437,-0.31092 2.54958,-0.49747 4.16639,-0.49748 14.17816,-2.17648 14.42689,-2.42521 0.74622,-0.68404 1.2437,0.0622 1.92774,2.79831 z m -24.25211,0.62185 c 0,0.37311 -8.70588,10.63362 -9.07899,10.63362 -0.55966,0 -8.95462,-9.82521 -8.95462,-10.57143 0,-0.18656 4.04202,-0.31093 9.01681,-0.31093 4.97479,0 9.0168,0.12437 9.0168,0.24874 z"
       stroke="null" />
  </g>
</svg>
