<svg width="1000" height="500" xmlns="http://www.w3.org/2000/svg" preserveAspectRatio="xMidYMid meet">
 <metadata>Created by potrace 1.13, written by Peter Selinger 2001-2015</metadata>

 <g>
  <title>background</title>
  <rect fill="none" id="canvas_background" height="502" width="1002" y="-1" x="-1"/>
 </g>
 <g>
  <title>Layer 1</title>
  <g id="svg_1" fill="#000000" transform="translate(0,494) scale(0.10000000149011612,-0.10000000149011612) ">
   <path stroke-width="0" id="svg_2" d="m989,4899c-414,-62 -768,-318 -910,-658c-62,-148 -59,-58 -59,-1796c0,-1554 1,-1592 20,-1673c37,-156 114,-293 235,-421c170,-180 385,-295 663,-353c107,-23 111,-23 987,-23c875,0 881,0 982,23c262,57 452,154 622,317c134,128 213,255 268,432l28,88l0,1600l0,1600l-23,85c-97,367 -402,644 -834,757l-103,27l-910,2c-500,1 -935,-2 -966,-7zm1901,-163c210,-50 369,-135 511,-276c101,-100 163,-192 200,-298c49,-139 49,-103 46,-1752c-2,-1446 -3,-1549 -20,-1604c-46,-154 -112,-267 -218,-374c-125,-126 -288,-218 -479,-269l-105,-28l-905,0l-905,0l-104,28c-200,53 -357,143 -488,280c-112,117 -188,255 -213,389c-7,33 -10,629 -10,1622c0,1559 0,1572 21,1646c78,282 320,514 637,610c157,48 163,48 1087,46c796,-2 876,-4 945,-20z"/>
   <path stroke-width="0" id="svg_3" d="m1535,3914c-628,-88 -1088,-614 -1088,-1244c0,-69 3,-141 7,-160c4,-19 11,-61 17,-93c23,-132 105,-333 182,-447c149,-221 374,-397 619,-485c133,-47 234,-66 378,-71c272,-8 556,80 764,238c38,29 75,57 83,63c10,8 102,-79 386,-363l372,-372l69,69l69,69l-372,375l-373,375l55,79c211,302 277,687 182,1053c-98,379 -396,705 -774,847c-129,48 -226,66 -391,68c-85,2 -168,1 -185,-1zm415,-157c173,-45 297,-108 434,-218c192,-154 324,-368 387,-623c25,-105 32,-302 14,-416c-37,-237 -135,-437 -300,-608c-103,-109 -187,-171 -310,-232c-506,-249 -1090,-89 -1414,388c-116,171 -182,392 -182,612c-1,125 6,175 36,297c78,309 308,585 607,728c156,75 298,104 493,100c110,-2 160,-8 235,-28z"/>
   <path stroke-width="0" id="svg_4" d="m1225,3584c-57,-19 -110,-80 -130,-148c-22,-75 -17,-111 14,-111c21,0 25,8 41,68c48,191 211,182 452,-25l57,-49l-64,-74c-35,-40 -76,-91 -90,-114c-25,-37 -31,-40 -83,-47c-32,-3 -99,-14 -150,-24c-52,-10 -95,-13 -98,-8c-3,5 -12,48 -20,95c-15,95 -22,108 -53,98c-26,-8 -27,-43 -6,-146c9,-40 14,-73 13,-74c-2,-1 -39,-14 -83,-29c-210,-72 -345,-197 -345,-317c0,-37 44,-121 81,-155c59,-55 151,-108 252,-144c69,-25 97,-40 97,-51c0,-9 -7,-52 -16,-95c-23,-110 -16,-261 15,-332c47,-105 136,-147 253,-117c95,24 198,86 295,178l41,39l79,-66c45,-39 117,-86 170,-113c78,-39 100,-46 155,-46c43,-1 75,5 102,18c43,21 90,80 107,134c24,77 16,297 -14,397c-6,17 5,23 82,47c95,31 111,41 111,69c0,31 -24,31 -115,-1c-48,-17 -91,-31 -96,-31c-5,0 -12,12 -15,28c-4,15 -26,76 -50,135l-42,108l49,122c27,67 49,128 49,135c0,26 31,23 122,-14c277,-110 341,-239 188,-377c-35,-31 -39,-39 -30,-57c17,-32 40,-24 101,39c111,113 106,218 -15,329c-61,55 -177,117 -278,148c-32,10 -58,22 -58,27c0,6 7,46 16,90c21,102 15,283 -10,342c-37,86 -100,128 -191,128c-103,0 -227,-62 -351,-176c-39,-36 -60,-48 -68,-41c-7,5 -51,39 -97,77c-75,60 -165,113 -225,131c-43,13 -111,13 -149,0zm980,-84c44,-41 60,-103 59,-220c-2,-124 -24,-237 -45,-232c-8,2 -75,12 -149,23c-124,18 -137,22 -155,47c-11,15 -52,66 -92,114l-72,86l47,44c76,72 168,128 262,162c8,3 39,4 68,2c38,-2 59,-9 77,-26zm-431,-311c36,-44 66,-84 66,-87c0,-4 -63,-7 -140,-7c-77,0 -140,2 -140,4c0,5 140,171 144,171c2,0 34,-36 70,-81zm42,-159l81,0l49,-77c27,-43 72,-122 100,-175l51,-97l-52,-98c-28,-54 -73,-131 -99,-171l-46,-72l-197,2l-197,3l-47,70c-25,39 -69,114 -98,168l-53,97l58,108c31,59 77,137 101,174l44,67l92,4c51,2 101,2 112,0c11,-1 56,-3 101,-3zm-396,-16c0,-3 -8,-18 -19,-32c-10,-15 -43,-71 -74,-125c-42,-75 -56,-94 -62,-80c-4,10 -22,59 -41,110l-33,92l56,11c59,13 139,27 161,29c6,0 12,-2 12,-5zm665,-10c28,-3 67,-10 88,-16c45,-11 45,-11 -7,-148l-33,-85l-28,55c-15,30 -50,90 -76,133l-49,79l27,-6c16,-3 51,-8 78,-12zm-916,-154c21,-58 45,-119 54,-137c16,-30 16,-33 -12,-95c-16,-34 -39,-96 -52,-136c-22,-69 -25,-73 -48,-67c-64,16 -182,68 -239,106c-148,97 -162,203 -39,303c65,52 261,142 291,133c5,-2 25,-50 45,-107zm145,-317c19,-38 50,-93 70,-123c19,-30 34,-55 33,-56c-11,-10 -217,36 -217,47c0,12 72,199 76,199c2,0 19,-30 38,-67zm890,-120c6,-19 2,-22 -46,-32c-76,-16 -162,-30 -166,-26c-2,2 12,27 31,56c19,30 51,85 72,123l39,69l32,-84c17,-46 35,-94 38,-106zm-901,-108c51,-8 108,-16 127,-18c30,-3 43,-13 90,-74c30,-38 73,-91 94,-117l39,-47l-29,-30c-16,-17 -57,-51 -92,-76c-165,-119 -289,-135 -347,-44c-40,65 -51,182 -28,315c18,108 22,119 39,112c8,-3 56,-12 107,-21zm937,-24c46,-193 20,-377 -60,-424c-78,-47 -234,14 -389,152l-45,40l45,48c35,38 91,107 145,182c2,1 20,5 41,8c67,8 228,35 232,39c12,11 20,-1 31,-45zm-390,-10c0,-6 -140,-171 -146,-171c-9,0 -144,158 -144,170c0,3 65,5 145,5c80,0 145,-2 145,-4z"/>
   <path stroke-width="0" id="svg_5" d="m1635,2830c-101,-51 -122,-180 -41,-259c79,-77 208,-56 255,43c27,55 26,93 -2,146c-16,30 -37,51 -67,67c-53,28 -93,29 -145,3zm138,-78c40,-41 38,-101 -4,-136c-43,-36 -91,-35 -130,3c-38,39 -39,87 -3,130c21,26 33,31 68,31c33,0 48,-6 69,-28z"/>
  </g>
  <text stroke="#000" transform="matrix(1.0164135694503784,0,0,1,-6.196122467517853,0) " font-style="normal" font-weight="normal" xml:space="preserve" text-anchor="start" font-family="'Trebuchet MS', Gadget, sans-serif" font-size="250" id="svg_6" y="432.699999" x="377.5" stroke-width="0" fill="#1c1c8c">blong</text>
 </g>
</svg>