<?xml version="1.0" standalone="no"?>
<!DOCTYPE svg PUBLIC "-//W3C//DTD SVG 20010904//EN"
 "http://www.w3.org/TR/2001/REC-SVG-20010904/DTD/svg10.dtd">
<svg version="1.0" xmlns="http://www.w3.org/2000/svg"
 width="383.000000pt" height="494.000000pt" viewBox="0 0 383.000000 494.000000"
 preserveAspectRatio="xMidYMid meet">
<metadata>
Created by potrace 1.13, written by Peter Selinger 2001-2015
</metadata>
<g transform="translate(0.000000,494.000000) scale(0.100000,-0.100000)"
fill="#000000" stroke="none">
<path d="M969 4929 c-414 -62 -768 -318 -910 -658 -62 -148 -59 -58 -59 -1796
0 -1554 1 -1592 20 -1673 37 -156 114 -293 235 -421 170 -180 385 -295 663
-353 107 -23 111 -23 987 -23 875 0 881 0 982 23 262 57 452 154 622 317 134
128 213 255 268 432 l28 88 0 1600 0 1600 -23 85 c-97 367 -402 644 -834 757
l-103 27 -910 2 c-500 1 -935 -2 -966 -7z m1901 -163 c210 -50 369 -135 511
-276 101 -100 163 -192 200 -298 49 -139 49 -103 46 -1752 -2 -1446 -3 -1549
-20 -1604 -46 -154 -112 -267 -218 -374 -125 -126 -288 -218 -479 -269 l-105
-28 -905 0 -905 0 -104 28 c-200 53 -357 143 -488 280 -112 117 -188 255 -213
389 -7 33 -10 629 -10 1622 0 1559 0 1572 21 1646 78 282 320 514 637 610 157
48 163 48 1087 46 796 -2 876 -4 945 -20z"/>
<path d="M1515 3944 c-628 -88 -1088 -614 -1088 -1244 0 -69 3 -141 7 -160 4
-19 11 -61 17 -93 23 -132 105 -333 182 -447 149 -221 374 -397 619 -485 133
-47 234 -66 378 -71 272 -8 556 80 764 238 38 29 75 57 83 63 10 8 102 -79
386 -363 l372 -372 69 69 69 69 -372 375 -373 375 55 79 c211 302 277 687 182
1053 -98 379 -396 705 -774 847 -129 48 -226 66 -391 68 -85 2 -168 1 -185 -1z
m415 -157 c173 -45 297 -108 434 -218 192 -154 324 -368 387 -623 25 -105 32
-302 14 -416 -37 -237 -135 -437 -300 -608 -103 -109 -187 -171 -310 -232
-506 -249 -1090 -89 -1414 388 -116 171 -182 392 -182 612 -1 125 6 175 36
297 78 309 308 585 607 728 156 75 298 104 493 100 110 -2 160 -8 235 -28z"/>
<path d="M1205 3614 c-57 -19 -110 -80 -130 -148 -22 -75 -17 -111 14 -111 21
0 25 8 41 68 48 191 211 182 452 -25 l57 -49 -64 -74 c-35 -40 -76 -91 -90
-114 -25 -37 -31 -40 -83 -47 -32 -3 -99 -14 -150 -24 -52 -10 -95 -13 -98 -8
-3 5 -12 48 -20 95 -15 95 -22 108 -53 98 -26 -8 -27 -43 -6 -146 9 -40 14
-73 13 -74 -2 -1 -39 -14 -83 -29 -210 -72 -345 -197 -345 -317 0 -37 44 -121
81 -155 59 -55 151 -108 252 -144 69 -25 97 -40 97 -51 0 -9 -7 -52 -16 -95
-23 -110 -16 -261 15 -332 47 -105 136 -147 253 -117 95 24 198 86 295 178
l41 39 79 -66 c45 -39 117 -86 170 -113 78 -39 100 -46 155 -46 43 -1 75 5
102 18 43 21 90 80 107 134 24 77 16 297 -14 397 -6 17 5 23 82 47 95 31 111
41 111 69 0 31 -24 31 -115 -1 -48 -17 -91 -31 -96 -31 -5 0 -12 12 -15 28 -4
15 -26 76 -50 135 l-42 108 49 122 c27 67 49 128 49 135 0 26 31 23 122 -14
277 -110 341 -239 188 -377 -35 -31 -39 -39 -30 -57 17 -32 40 -24 101 39 111
113 106 218 -15 329 -61 55 -177 117 -278 148 -32 10 -58 22 -58 27 0 6 7 46
16 90 21 102 15 283 -10 342 -37 86 -100 128 -191 128 -103 0 -227 -62 -351
-176 -39 -36 -60 -48 -68 -41 -7 5 -51 39 -97 77 -75 60 -165 113 -225 131
-43 13 -111 13 -149 0z m980 -84 c44 -41 60 -103 59 -220 -2 -124 -24 -237
-45 -232 -8 2 -75 12 -149 23 -124 18 -137 22 -155 47 -11 15 -52 66 -92 114
l-72 86 47 44 c76 72 168 128 262 162 8 3 39 4 68 2 38 -2 59 -9 77 -26z
m-431 -311 c36 -44 66 -84 66 -87 0 -4 -63 -7 -140 -7 -77 0 -140 2 -140 4 0
5 140 171 144 171 2 0 34 -36 70 -81z m42 -159 l81 0 49 -77 c27 -43 72 -122
100 -175 l51 -97 -52 -98 c-28 -54 -73 -131 -99 -171 l-46 -72 -197 2 -197 3
-47 70 c-25 39 -69 114 -98 168 l-53 97 58 108 c31 59 77 137 101 174 l44 67
92 4 c51 2 101 2 112 0 11 -1 56 -3 101 -3z m-396 -16 c0 -3 -8 -18 -19 -32
-10 -15 -43 -71 -74 -125 -42 -75 -56 -94 -62 -80 -4 10 -22 59 -41 110 l-33
92 56 11 c59 13 139 27 161 29 6 0 12 -2 12 -5z m665 -10 c28 -3 67 -10 88
-16 45 -11 45 -11 -7 -148 l-33 -85 -28 55 c-15 30 -50 90 -76 133 l-49 79 27
-6 c16 -3 51 -8 78 -12z m-916 -154 c21 -58 45 -119 54 -137 16 -30 16 -33
-12 -95 -16 -34 -39 -96 -52 -136 -22 -69 -25 -73 -48 -67 -64 16 -182 68
-239 106 -148 97 -162 203 -39 303 65 52 261 142 291 133 5 -2 25 -50 45 -107z
m145 -317 c19 -38 50 -93 70 -123 19 -30 34 -55 33 -56 -11 -10 -217 36 -217
47 0 12 72 199 76 199 2 0 19 -30 38 -67z m890 -120 c6 -19 2 -22 -46 -32 -76
-16 -162 -30 -166 -26 -2 2 12 27 31 56 19 30 51 85 72 123 l39 69 32 -84 c17
-46 35 -94 38 -106z m-901 -108 c51 -8 108 -16 127 -18 30 -3 43 -13 90 -74
30 -38 73 -91 94 -117 l39 -47 -29 -30 c-16 -17 -57 -51 -92 -76 -165 -119
-289 -135 -347 -44 -40 65 -51 182 -28 315 18 108 22 119 39 112 8 -3 56 -12
107 -21z m937 -24 c46 -193 20 -377 -60 -424 -78 -47 -234 14 -389 152 l-45
40 45 48 c35 38 91 107 145 182 2 1 20 5 41 8 67 8 228 35 232 39 12 11 20 -1
31 -45z m-390 -10 c0 -6 -140 -171 -146 -171 -9 0 -144 158 -144 170 0 3 65 5
145 5 80 0 145 -2 145 -4z"/>
<path d="M1615 2860 c-101 -51 -122 -180 -41 -259 79 -77 208 -56 255 43 27
55 26 93 -2 146 -16 30 -37 51 -67 67 -53 28 -93 29 -145 3z m138 -78 c40 -41
38 -101 -4 -136 -43 -36 -91 -35 -130 3 -38 39 -39 87 -3 130 21 26 33 31 68
31 33 0 48 -6 69 -28z"/>
</g>
</svg>
